# xmcd
#
# Track frame offsets:
#	182
#	13085
#	27067
#	38127
#	50277
#	61787
#	74327
#	88957
#	103680
#	115820
#	127137
#	144132
#	157440
#	168647
#	188092
#	197002
#	208717
#	221822
#	238195
#	248635
#	260930
#	273900
#	286800
#	304622
#	312855
#	323675
#	335147
#
# Disc length: 4614 seconds
#
# Revision: 9
# Processed by: cddbd v1.5.2PL0 Copyright (c) Steve Scherf et al.
# Submitted via: EZCDAudioConverter 2.1.7.1
#
DISCID=9b12041b
DTITLE=V/A - Nuggets II 2/4
DYEAR=2001
DGENRE=
TTITLE0=The Misunderstood - Children Of The Sun
TTITLE1=Wimple Witch - Save My Soul
TTITLE2=John's Children - Desdemona
TTITLE3=Van Morrison - I Can Only Give You Everything
TTITLE4=The Troggs - Lost Girl
TTITLE5=The Craig - I Must Be Mad
TTITLE6=The Birds - Say Those Magic Words
TTITLE7=Caleb - Baby Your Phrasing Is Bad
TTITLE8=Golden Earrings - Daddy Buy Me A Girl
TTITLE9=Ronnie Burns - Exit Stage Right
TTITLE10=Timebox - Gone Is The Sad Man
TTITLE11=The Eyes - I'm Rowed Out
TTITLE12=Davy Jones - You've Got A Habit Of Leaving
TTITLE13=Rupert's People - Reflections Of Charles Brown
TTITLE14=The Mascots - Words Enough To Tell You
TTITLE15=The Poets - That's The Way It's Got To Be
TTITLE16=The Syn - 14 Hour Technicolour Dream
TTITLE17=Pretty Things - Walking Through My Dreams
TTITLE18=The Primitives - You Said
TTITLE19=Lost Souls - This Life Of Mine
TTITLE20=The Action - Shadows and Reflections
TTITLE21=The Easybeats - Friday On My Mind
TTITLE22=Love Sculpture - In The Land Of The Few
TTITLE23=The Motions - For Another Man
TTITLE24=The Move - Fire Brigade
TTITLE25=The Boots - Gaby
TTITLE26=The Creation - Biff! Bang! Pow!
EXTD=
EXTT0=
EXTT1=
EXTT2=
EXTT3=
EXTT4=
EXTT5=
EXTT6=
EXTT7=
EXTT8=
EXTT9=
EXTT10=
EXTT11=
EXTT12=
EXTT13=
EXTT14=
EXTT15=
EXTT16=
EXTT17=
EXTT18=
EXTT19=
EXTT20=
EXTT21=
EXTT22=
EXTT23=
EXTT24=
EXTT25=
EXTT26=
PLAYORDER=
